<svg width="32" height="32" viewBox="0 0 32 32" fill="none" xmlns="http://www.w3.org/2000/svg">
<path d="M0.452576 27.544C0.452576 29.7597 2.25867 31.5556 4.4865 31.5556H27.7034C29.9316 31.5556 31.7375 29.7595 31.7375 27.544V4.45607C31.7375 2.24026 29.9314 0.444443 27.7036 0.444443H4.48662C2.25842 0.444443 0.452576 2.2405 0.452576 4.45595V27.5439V27.544Z" fill="#563D7C"/>
<path d="M13.4258 14.206V9.80026H17.3255C17.6971 9.80026 18.0551 9.83101 18.4 9.89262C18.7449 9.95411 19.05 10.064 19.3153 10.2223C19.5805 10.3807 19.7928 10.6005 19.952 10.8819C20.1111 11.1633 20.1908 11.5239 20.1908 11.9635C20.1908 12.755 19.952 13.3266 19.4744 13.6783C18.997 14.0302 18.3868 14.206 17.6439 14.206H13.4258ZM9.26062 6.5816V25.4184H18.4398C19.2888 25.4184 20.1157 25.3129 20.9204 25.1018C21.7251 24.8907 22.4414 24.5654 23.0693 24.1257C23.6971 23.686 24.1968 23.1187 24.5681 22.4241C24.9397 21.7293 25.1253 20.907 25.1253 19.9573C25.1253 18.7789 24.8379 17.772 24.2631 16.9366C23.6883 16.1011 22.8172 15.5163 21.6498 15.1821C22.4988 14.7777 23.14 14.2587 23.5734 13.6256C24.0066 12.9924 24.2233 12.201 24.2233 11.2512C24.2233 10.3718 24.0774 9.63316 23.7855 9.03512C23.4937 8.4372 23.0825 7.9579 22.5519 7.59733C22.0214 7.23675 21.3847 6.97729 20.6418 6.81906C19.899 6.66071 19.0765 6.5816 18.1745 6.5816H9.26062ZM13.4258 22.1997V17.0289H17.9622C18.8643 17.0289 19.5894 17.2354 20.1378 17.6489C20.686 18.0622 20.9602 18.7525 20.9602 19.7198C20.9602 20.2124 20.8762 20.6168 20.7081 20.9334C20.5401 21.25 20.3146 21.5007 20.0316 21.6853C19.7487 21.87 19.4214 22.0019 19.05 22.0811C18.6785 22.1601 18.2895 22.1997 17.8827 22.1997H13.4258Z" fill="white"/>
</svg>
